<svg width="191" height="191" viewBox="0 0 191 191" fill="none" xmlns="http://www.w3.org/2000/svg">
<path d="M31.9852 43.0938L30.059 44.3048L27.8466 44.0468C24.7511 43.6857 22.3713 41.1146 22.2813 37.9483L22.2469 36.7338H21.0319C17.4742 36.7338 14.5728 33.8793 14.4819 30.269L14.4393 28.5773L12.8349 29.1153C12.0015 29.3947 11.1143 29.5374 10.1663 29.5374C5.21994 29.5374 1.25 25.5092 1.25 20.561C1.25 16.0919 4.46059 12.4403 8.65396 11.7294L9.69502 11.5529V10.4969V10.4957V10.4944V10.4931V10.4919V10.4906V10.4893V10.4881V10.4868V10.4856V10.4843V10.4831V10.4818V10.4806V10.4793V10.4781V10.4768V10.4756V10.4743V10.4731V10.4718V10.4706V10.4693V10.4681V10.4669V10.4656V10.4644V10.4631V10.4619V10.4607V10.4594V10.4582V10.457V10.4557V10.4545V10.4533V10.4521V10.4508V10.4496V10.4484V10.4472V10.446V10.4447V10.4435V10.4423V10.4411V10.4399V10.4387V10.4374V10.4362V10.435V10.4338V10.4326V10.4314V10.4302V10.429V10.4278V10.4266V10.4254V10.4242V10.423V10.4218V10.4206V10.4194V10.4182V10.417V10.4158V10.4146V10.4134V10.4122V10.4111V10.4099V10.4087V10.4075V10.4063V10.4051V10.404V10.4028V10.4016V10.4004V10.3992V10.3981V10.3969V10.3957V10.3945V10.3934V10.3922V10.391V10.3899V10.3887V10.3875V10.3864V10.3852V10.384V10.3829V10.3817V10.3805V10.3794V10.3782V10.3771V10.3759V10.3748V10.3736V10.3724V10.3713V10.3701V10.369V10.3678V10.3667V10.3655V10.3644V10.3632V10.3621V10.361V10.3598V10.3587V10.3575V10.3564V10.3553V10.3541V10.353V10.3518V10.3507V10.3496V10.3484V10.3473V10.3462V10.345V10.3439V10.3428V10.3417V10.3405V10.3394V10.3383V10.3372V10.336V10.3349V10.3338V10.3327V10.3315V10.3304V10.3293V10.3282V10.3271V10.326V10.3248V10.3237V10.3226V10.3215V10.3204V10.3193V10.3182V10.3171V10.316V10.3149V10.3137V10.3126V10.3115V10.3104V10.3093V10.3082V10.3071V10.306V10.3049V10.3038V10.3027V10.3016V10.3005V10.2995V10.2984V10.2973V10.2962V10.2951V10.294V10.2929V10.2918V10.2907V10.2896V10.2885V10.2875V10.2864V10.2853V10.2842V10.2831V10.282V10.281V10.2799V10.2788V10.2777V10.2767V10.2756V10.2745V10.2734V10.2723V10.2713V10.2702V10.2691V10.2681V10.267V10.2659V10.2648V10.2638V10.2627V10.2616V10.2606V10.2595V10.2584V10.2574V10.2563V10.2553V10.2542V10.2531V10.2521V10.251V10.25V10.2489V10.2478V10.2468V10.2457V10.2447V10.2436V10.2426V10.2415V10.2405V10.2394V10.2384V10.2373V10.2363V10.2352V10.2342V10.2331V10.2321V10.231V10.23V10.2289V10.2279V10.2268V10.2258V10.2248V10.2237V10.2227V10.2216V10.2206V10.2196V10.2185V10.2175V10.2164V10.2154V10.2144V10.2133V10.2123V10.2113V10.2102V10.2092V10.2082V10.2071V10.2061V10.2051V10.204V10.203V10.202V10.201V10.1999V10.1989V10.1979V10.1969V10.1958V10.1948V10.1938V10.1928V10.1917V10.1907V10.1897V10.1887V10.1877V10.1866V10.1856V10.1846V10.1836V10.1826V10.1815V10.1805V10.1795V10.1785V10.1775V10.1765V10.1755V10.1744V10.1734V10.1724V10.1714V10.1704V10.1694V10.1684V10.1674V10.1664V10.1654V10.1644V10.1633V10.1623V10.1613V10.1603V10.1593V10.1583V10.1573V10.1563V10.1553V10.1543V10.1533V10.1523V10.1513V10.1503V10.1493V10.1483V10.1473V10.1463V10.1453V10.1443V10.1433V10.1423V10.1413V10.1403V10.1393V10.1383V10.1373V10.1364V10.1354V10.1344V10.1334V10.1324V10.1314V10.1304V10.1294V10.1284V10.1274V10.1264V10.1255V10.1245V10.1235V10.1225V10.1215V10.1205V10.1195V10.1185V10.1176V10.1166V10.1156V10.1146V10.1136V10.1126V10.1117V10.1107V10.1097V10.1087V10.1077V10.1067V10.1058V10.1048V10.1038V10.1028V10.1018V10.1009V10.0999V10.0989V10.0979V10.097V10.096V10.095V10.094V10.093V10.0921V10.0911V10.0901V10.0891V10.0882V10.0872V10.0862V10.0852V10.0843V10.0833V10.0823V10.0814V10.0804V10.0794V10.0784V10.0775V10.0765V10.0755V10.0746V10.0736V10.0726V10.0717V10.0707V10.0697V10.0688V10.0678V10.0668V10.0658V10.0649V10.0639V10.0629V10.062V10.061V10.0601V10.0591V10.0581V10.0572V10.0562V10.0552V10.0543V10.0533V10.0523V10.0514V10.0504V10.0494V10.0485V10.0475V10.0466V10.0456V10.0446V10.0437V10.0427V10.0418V10.0408V10.0398V10.0389V10.0379V10.0369V10.036V10.035V10.0341V10.0331V10.0322V10.0312V10.0302V10.0293V10.0283V10.0274V10.0264V10.0254V10.0245V10.0235V10.0226V10.0216V10.0207V10.0197V10.0187V10.0178V10.0168V10.0159V10.0149V10.014V10.013V10.0121V10.0111V10.0101V10.0092V10.0082V10.0073V10.0063V10.0054V10.0044V10.0035V10.0025V10.0016V10.0006V9.99965V9.99869V9.99774V9.99679V9.99583V9.99488V9.99393V9.99297V9.99202V9.99107V9.99012V9.98916V9.98821V9.98726V9.98631V9.98535V9.9844V9.98345V9.9825V9.98154V9.98059V9.97964V9.97869V9.97774V9.97678V9.97583V9.97488V9.97393V9.97298V9.97203V9.97108V9.97012V9.96917V9.96822V9.96727V9.96632V9.96537V9.96442V9.96347V9.96251V9.96156V9.96061V9.95966V9.95871V9.95776V9.95681V9.95586C9.69502 5.12025 13.5531 1.25 18.3424 1.25C23.1316 1.25 26.9897 5.12025 26.9897 9.95586C26.9897 10.5055 26.9121 10.9724 26.8092 11.5921C26.8033 11.6273 26.7974 11.6631 26.7914 11.6994L26.5611 13.0889L27.9681 13.1525C32.0889 13.3388 35.3809 16.7397 35.3809 20.9398C35.3809 24.9106 32.4574 28.1711 28.6642 28.6829L27.5814 28.829V29.9217V29.922V29.9223V29.9226V29.923V29.9233V29.9236V29.9239V29.9242V29.9245V29.9249V29.9252V29.9255V29.9258V29.9261V29.9264V29.9268V29.9271V29.9274V29.9277V29.928V29.9283V29.9287V29.929V29.9293V29.9296V29.9299V29.9302V29.9306V29.9309V29.9312V29.9315V29.9318V29.9321V29.9325V29.9328V29.9331V29.9334V29.9337V29.9341V29.9344V29.9347V29.935V29.9353V29.9356V29.936V29.9363V29.9366V29.9369V29.9372V29.9375V29.9379V29.9382V29.9385V29.9388V29.9391V29.9394V29.9398V29.9401V29.9404V29.9407V29.941V29.9413V29.9417V29.942V29.9423V29.9426V29.9429V29.9432V29.9436V29.9439V29.9442V29.9445V29.9448V29.9451V29.9455V29.9458V29.9461V29.9464V29.9467V29.9471V29.9474V29.9477V29.948V29.9483V29.9486V29.949V29.9493V29.9496V29.9499V29.9502V29.9505V29.9509V29.9512V29.9515V29.9518V29.9521V29.9524V29.9528V29.9531V29.9534V29.9537V29.954V29.9543V29.9547V29.955V29.9553V29.9556V29.9559V29.9562V29.9566V29.9569V29.9572V29.9575V29.9578V29.9581V29.9585V29.9588V29.9591V29.9594V29.9597V29.96V29.9604V29.9607V29.961V29.9613V29.9616V29.962V29.9623V29.9626V29.9629V29.9632V29.9635V29.9639V29.9642V29.9645V29.9648V29.9651V29.9654V29.9658V29.9661V29.9664V29.9667V29.967V29.9673V29.9677V29.968V29.9683V29.9686V29.9689V29.9692V29.9696V29.9699V29.9702V29.9705V29.9708V29.9711V29.9715V29.9718V29.9721V29.9724V29.9727V29.973V29.9734V29.9737V29.974V29.9743V29.9746V29.9749V29.9753V29.9756V29.9759V29.9762V29.9765V29.9769V29.9772V29.9775V29.9778V29.9781V29.9784V29.9788V29.9791V29.9794V29.9797V29.98V29.9803V29.9807V29.981V29.9813V29.9816V29.9819V29.9822V29.9826V29.9829V29.9832V29.9835V29.9838V29.9841V29.9845V29.9848V29.9851V29.9854V29.9857V29.986V29.9864V29.9867V29.987V29.9873V29.9876V29.9879V29.9883V29.9886V29.9889V29.9892V29.9895V29.9898V29.9902V29.9905V29.9908V29.9911V29.9914V29.9918V29.9921V29.9924V29.9927V29.993V29.9933V29.9937V29.994V29.9943V29.9946V29.9949V29.9952V29.9956V29.9959V29.9962V29.9965V29.9968V29.9971V29.9975V29.9978V29.9981V29.9984V29.9987V29.999V29.9994V29.9997V30V30.0003V30.0006V30.0009V30.0013V30.0016V30.0019V30.0022V30.0025V30.0028V30.0032V30.0035V30.0038V30.0041V30.0044V30.0047V30.0051V30.0054V30.0057V30.006V30.0063V30.0067V30.007V30.0073V30.0076V30.0079V30.0082V30.0086V30.0089V30.0092V30.0095V30.0098V30.0101V30.0105V30.0108V30.0111V30.0114V30.0117V30.012V30.0124V30.0127V30.013V30.0133V30.0136V30.0139V30.0143V30.0146V30.0149V30.0152V30.0155V30.0158V30.0162V30.0165V30.0168V30.0171V30.0174V30.0177V30.0181V30.0184V30.0187V30.019V30.0193V30.0196V30.02V30.0203V30.0206V30.0209V30.0212V30.0216V30.0219V30.0222V30.0225V30.0228V30.0231V30.0235V30.0238V30.0241V30.0244V30.0247V30.025V30.0254V30.0257V30.026V30.0263V30.0266V30.0269V30.0273V30.0276V30.0279V30.0282V30.0285V30.0288V30.0292V30.0295V30.0298V30.0301V30.0304V30.0307V30.0311V30.0314V30.0317V30.032V30.0323V30.0326V30.033V30.0333V30.0336V30.0339V30.0342V30.0345V30.0349V30.0352V30.0355V30.0358V30.0361V30.0365V30.0368V30.0371V30.0374V30.0377V30.038V30.0384V30.0387V30.039V30.0393V30.0396V30.0399V30.0403V30.0406V30.0409V30.0412V30.0415V30.0418V30.0422V30.0425V30.0428V30.0431V30.0434V30.0437V30.0441V30.0444V30.0447V30.045V30.0453V30.0456V30.046V30.0463V30.0466V30.0469V30.0472V30.0475V30.0479V30.0482V30.0485V30.0488V30.0491V30.0494V30.0498V30.0501V30.0504V30.0507V30.051V30.0514V30.0517V30.052V30.0523V30.0526V30.0529V30.0533V30.0536V30.0539V30.0542V30.0545V30.0548V30.0552V30.0555V30.0558V30.0561V30.0564V30.0567V30.0571V30.0574V30.0577V30.058V30.0583V30.0586V30.059V30.0593V30.0596V30.0599V30.0602V30.0605V30.0609V30.0612V30.0615V30.0618V30.0621V30.0624V30.0628V30.0631V30.0634V30.0637V30.064V30.0643V30.0647V30.065V30.0653V30.0656V30.0659V30.0663V30.0666V30.0669V30.0672V30.0675V30.0678V30.0682V30.0685V30.0688V30.0691V30.0694V30.0697V30.0701V30.0704V30.0707V30.071V30.0713V30.0716V30.072V30.0723V30.0726V30.0729V30.0732V30.0735V30.0739V30.0742V30.0745V30.0748V30.0751V30.0754V30.0758V30.0761V30.0764V30.0767V30.077V30.0773V30.0777V30.078V30.0783V30.0786V30.0789V30.0793V30.0796V30.0799V30.0802V30.0805V30.0808V30.0812V30.0815V30.0818V30.0821V30.0824V30.0827V30.0831V30.0834V30.0837V30.084V31.2854L28.7818 31.333C32.2095 31.4691 34.9506 34.2823 34.9506 37.7132C34.9506 39.9764 33.7835 41.9632 31.9852 43.0938ZM28.5883 46.1696L30.172 44.5765L32.2211 45.326C33.4982 45.7931 34.4127 47.0521 34.4127 48.5348C34.4127 50.4391 32.8771 51.9381 31.0368 51.9381C29.1616 51.9381 27.6608 50.404 27.6608 48.5348C27.6608 47.5548 28.0223 46.7389 28.5883 46.1696Z" transform="matrix(0.925086 0.379757 -0.378194 0.925726 84.4666 17)" stroke="#6a60af" stroke-width="2.5"/>
<path d="M3.05319 2.16432C3.05319 2.67624 2.6426 3.07863 2.1516 3.07863C1.6606 3.07863 1.25 2.67624 1.25 2.16432C1.25 1.6524 1.6606 1.25 2.1516 1.25C2.6426 1.25 3.05319 1.6524 3.05319 2.16432Z" transform="matrix(0.925086 0.379757 -0.378194 0.925726 96.1528 83.9722)" stroke="#6a60af" stroke-width="2.5"/>
<mask id="path-3-inside-1" fill="white">
<path d="M37.9275 1.49944L35.9587 6.86485C32.4148 6.23362 28.6347 6.31253 25.012 7.25936L22.5707 1.97285C22.0194 0.868212 20.6806 0.315896 19.5781 0.868217L15.8767 2.60408C14.7741 3.1564 14.2229 4.49775 14.7741 5.60239L17.2155 10.81C14.1441 12.9404 11.624 15.702 9.81269 18.8581L4.37872 16.8855C3.19742 16.491 1.85862 17.0433 1.46486 18.2269L0.12606 22.0142C-0.267705 23.1978 0.283564 24.5391 1.46486 24.9336L6.82007 26.9062C6.19005 30.4568 6.2688 34.2442 7.21384 37.8737L1.93738 40.3197C0.83484 40.872 0.283561 42.2134 0.834833 43.318L2.56741 47.0264C3.11868 48.1311 4.45747 48.6834 5.56002 48.1311L10.7577 45.6851C12.8841 48.7623 15.6404 51.2872 18.7905 53.102L16.8217 58.5463C16.4279 59.7298 16.9792 61.0712 18.1605 61.4657L21.9407 62.807C23.122 63.2016 24.4608 62.6492 24.8545 61.4657L26.8233 56.1003C30.3672 56.7315 34.1474 56.6526 37.77 55.7058L40.2114 60.9923C40.7626 62.0969 42.1014 62.6492 43.204 62.0969L46.9054 60.361C48.0079 59.8087 48.5592 58.4674 48.0079 57.3627L45.5666 52.1551C48.6379 50.0248 51.158 47.2632 52.9694 44.107L58.4033 46.0796C59.5846 46.4741 60.9234 45.9218 61.3172 44.7383L62.656 40.9509C63.0498 39.7674 62.4985 38.426 61.3172 38.0315L55.962 36.0589C56.592 32.5083 56.5132 28.721 55.5682 25.0914L60.8447 22.6454C61.9472 22.0931 62.4985 20.7518 61.9472 19.6471L60.2147 15.9387C59.6634 14.834 58.3246 14.2817 57.222 14.834L52.0243 17.28C49.898 14.2028 47.1416 11.6779 43.9915 9.86315L45.9603 4.41885C46.3541 3.23531 45.8028 1.89396 44.6215 1.49944L40.8414 0.158095C39.6601 -0.315323 38.3213 0.315899 37.9275 1.49944ZM37.14 43.7125C30.446 46.8686 22.4132 43.9492 19.3418 37.2425C16.1917 30.5357 19.1056 22.5665 25.7996 19.4104C32.4936 16.2543 40.5264 19.1737 43.5977 25.8805C46.6691 32.5083 43.834 40.5564 37.14 43.7125Z"/>
</mask>
<path d="M37.9275 1.49944L40.2745 2.36066L40.2876 2.32485L40.2997 2.28866L37.9275 1.49944ZM35.9587 6.86485L35.5203 9.32611L37.5837 9.69363L38.3057 7.72607L35.9587 6.86485ZM25.012 7.25936L22.7424 8.30751L23.6197 10.2073L25.6442 9.67811L25.012 7.25936ZM22.5707 1.97285L24.8403 0.924705L24.8245 0.890365L24.8076 0.85652L22.5707 1.97285ZM19.5781 0.868217L20.6396 3.13167L20.6689 3.11793L20.6978 3.10343L19.5781 0.868217ZM15.8767 2.60408L14.8152 0.340629L14.7859 0.354369L14.7569 0.368863L15.8767 2.60408ZM14.7741 5.60239L17.0377 4.54121L17.0247 4.51347L17.0111 4.48606L14.7741 5.60239ZM17.2155 10.81L18.6403 12.8642L20.3754 11.6607L19.4791 9.74881L17.2155 10.81ZM9.81269 18.8581L8.95964 21.2081L10.935 21.9251L11.981 20.1025L9.81269 18.8581ZM4.37872 16.8855L5.23177 14.5356L5.20135 14.5245L5.17064 14.5143L4.37872 16.8855ZM1.46486 18.2269L3.82193 19.0601L3.82968 19.0382L3.83702 19.0161L1.46486 18.2269ZM0.12606 22.0142L-2.23101 21.181L-2.23876 21.2029L-2.2461 21.225L0.12606 22.0142ZM1.46486 24.9336L2.32897 22.5877L2.29307 22.5745L2.25678 22.5624L1.46486 24.9336ZM6.82007 26.9062L9.28162 27.343L9.64709 25.2833L7.68418 24.5603L6.82007 26.9062ZM7.21384 37.8737L8.26528 40.1418L10.1592 39.2639L9.63317 37.2438L7.21384 37.8737ZM1.93738 40.3197L0.885943 38.0516L0.851545 38.0675L0.817647 38.0845L1.93738 40.3197ZM0.834833 43.318L3.09983 42.2598L3.08616 42.2306L3.07175 42.2017L0.834833 43.318ZM2.56741 47.0264L0.302414 48.0847L0.316078 48.1139L0.330492 48.1428L2.56741 47.0264ZM5.56002 48.1311L4.49552 45.869L4.46774 45.8821L4.44028 45.8959L5.56002 48.1311ZM10.7577 45.6851L12.8145 44.2639L11.6101 42.521L9.69323 43.4231L10.7577 45.6851ZM18.7905 53.102L21.1415 53.9522L21.8541 51.9817L20.0385 50.9357L18.7905 53.102ZM16.8217 58.5463L14.4707 57.6961L14.4597 57.7264L14.4495 57.7571L16.8217 58.5463ZM18.1605 61.4657L18.9965 59.1096L18.9746 59.1018L18.9524 59.0944L18.1605 61.4657ZM21.9407 62.807L21.1046 65.1631L21.1266 65.1709L21.1487 65.1783L21.9407 62.807ZM24.8545 61.4657L22.5075 60.6045L22.4944 60.6403L22.4824 60.6765L24.8545 61.4657ZM26.8233 56.1003L27.2617 53.639L25.1984 53.2715L24.4764 55.2391L26.8233 56.1003ZM37.77 55.7058L40.0397 54.6576L39.1624 52.7579L37.1378 53.287L37.77 55.7058ZM40.2114 60.9923L37.9417 62.0404L37.9576 62.0748L37.9744 62.1086L40.2114 60.9923ZM43.204 62.0969L42.1425 59.8335L42.1132 59.8472L42.0842 59.8617L43.204 62.0969ZM46.9054 60.361L47.9669 62.6245L47.9962 62.6108L48.0251 62.5963L46.9054 60.361ZM48.0079 57.3627L45.7443 58.4239L45.7573 58.4517L45.771 58.4791L48.0079 57.3627ZM45.5666 52.1551L44.1417 50.1009L42.4067 51.3044L43.303 53.2163L45.5666 52.1551ZM52.9694 44.107L53.8224 41.7571L51.8471 41.04L50.8011 42.8626L52.9694 44.107ZM58.4033 46.0796L57.5503 48.4296L57.5807 48.4406L57.6114 48.4509L58.4033 46.0796ZM61.3172 44.7383L58.9601 43.9051L58.9524 43.927L58.945 43.9491L61.3172 44.7383ZM62.656 40.9509L65.0131 41.7841L65.0208 41.7622L65.0282 41.7401L62.656 40.9509ZM61.3172 38.0315L60.4531 40.3774L60.489 40.3907L60.5253 40.4028L61.3172 38.0315ZM55.962 36.0589L53.5004 35.6222L53.135 37.6818L55.0979 38.4049L55.962 36.0589ZM55.5682 25.0914L54.5168 22.8233L52.6229 23.7012L53.1489 25.7214L55.5682 25.0914ZM60.8447 22.6454L61.8961 24.9136L61.9305 24.8976L61.9644 24.8807L60.8447 22.6454ZM61.9472 19.6471L59.6822 20.7053L59.6959 20.7346L59.7103 20.7635L61.9472 19.6471ZM60.2147 15.9387L62.4797 14.8805L62.466 14.8512L62.4516 14.8224L60.2147 15.9387ZM57.222 14.834L58.2865 17.0961L58.3143 17.083L58.3418 17.0693L57.222 14.834ZM52.0243 17.28L49.9676 18.7012L51.1719 20.4442L53.0888 19.5421L52.0243 17.28ZM43.9915 9.86315L41.6405 9.01296L40.9279 10.9834L42.7436 12.0294L43.9915 9.86315ZM45.9603 4.41885L48.3113 5.26904L48.3223 5.23869L48.3325 5.20807L45.9603 4.41885ZM44.6215 1.49944L43.7855 3.85551L43.8075 3.86331L43.8296 3.8707L44.6215 1.49944ZM40.8414 0.158095L39.9114 2.47868L39.958 2.49736L40.0054 2.51416L40.8414 0.158095ZM19.3418 37.2425L21.6148 36.2016L21.6098 36.1906L21.6046 36.1797L19.3418 37.2425ZM43.5977 25.8805L41.3247 26.9214L41.3295 26.9316L43.5977 25.8805ZM35.5806 0.638224L33.6117 6.00363L38.3057 7.72607L40.2745 2.36066L35.5806 0.638224ZM36.3971 4.40358C32.5233 3.7136 28.3766 3.796 24.3799 4.84061L25.6442 9.67811C28.8927 8.82905 32.3063 8.75365 35.5203 9.32611L36.3971 4.40358ZM27.2817 6.21121L24.8403 0.924705L20.301 3.021L22.7424 8.30751L27.2817 6.21121ZM24.8076 0.85652C23.733 -1.2968 20.9766 -2.62852 18.4583 -1.367L20.6978 3.10343C20.6379 3.13346 20.5702 3.14949 20.5079 3.15135C20.4492 3.15311 20.4089 3.14219 20.3879 3.13416C20.3553 3.1217 20.3427 3.10714 20.3338 3.08919L24.8076 0.85652ZM18.5166 -1.39523L14.8152 0.340629L16.9382 4.86753L20.6396 3.13167L18.5166 -1.39523ZM14.7569 0.368863C12.6033 1.44772 11.2829 4.20535 12.5372 6.71873L17.0111 4.48606C17.0404 4.54488 17.0559 4.61093 17.0577 4.67126C17.0594 4.72802 17.0489 4.76662 17.0413 4.78639C17.0299 4.81631 17.0164 4.8293 16.9964 4.8393L14.7569 0.368863ZM12.5105 6.66358L14.9519 11.8712L19.4791 9.74881L17.0377 4.54121L12.5105 6.66358ZM15.7906 8.75578C12.4143 11.0977 9.64031 14.1359 7.6444 17.6137L11.981 20.1025C13.6077 17.268 15.8739 14.7831 18.6403 12.8642L15.7906 8.75578ZM10.6657 16.5081L5.23177 14.5356L3.52567 19.2355L8.95964 21.2081L10.6657 16.5081ZM5.17064 14.5143C2.88314 13.7503 -0.0122337 14.7473 -0.907299 17.4377L3.83702 19.0161C3.81802 19.0732 3.78405 19.1297 3.74165 19.1748C3.70169 19.2173 3.66504 19.2386 3.64342 19.2482C3.60853 19.2638 3.59337 19.259 3.5868 19.2568L5.17064 14.5143ZM-0.892208 17.3937L-2.23101 21.181L2.48313 22.8474L3.82193 19.0601L-0.892208 17.3937ZM-2.2461 21.225C-3.00522 23.5067 -2.01822 26.4061 0.672936 27.3049L2.25678 22.5624C2.31543 22.582 2.37264 22.6167 2.41774 22.6592C2.46022 22.6993 2.48097 22.7356 2.49006 22.7561C2.50443 22.7885 2.49935 22.8 2.49822 22.8034L-2.2461 21.225ZM0.600749 27.2795L5.95596 29.2521L7.68418 24.5603L2.32897 22.5877L0.600749 27.2795ZM4.35852 26.4694C3.67017 30.3487 3.75238 34.5012 4.7945 38.5036L9.63317 37.2438C8.78521 33.9871 8.70992 30.5649 9.28162 27.343L4.35852 26.4694ZM6.1624 35.6056L0.885943 38.0516L2.98882 42.5878L8.26528 40.1418L6.1624 35.6056ZM0.817647 38.0845C-1.33594 39.1633 -2.6564 41.9209 -1.40208 44.4343L3.07175 42.2017C3.1011 42.2605 3.1166 42.3266 3.11839 42.3869C3.12008 42.4437 3.10957 42.4823 3.10204 42.502C3.09063 42.5319 3.07706 42.5449 3.05712 42.5549L0.817647 38.0845ZM-1.43016 44.3762L0.302414 48.0847L4.83241 45.9682L3.09983 42.2598L-1.43016 44.3762ZM0.330492 48.1428C1.40511 50.2961 4.16149 51.6278 6.67975 50.3663L4.44028 45.8959C4.50021 45.8658 4.56791 45.8498 4.63023 45.8479C4.68892 45.8462 4.72921 45.8571 4.75022 45.8651C4.78278 45.8776 4.79537 45.8922 4.80433 45.9101L0.330492 48.1428ZM6.62451 50.3931L11.8222 47.9471L9.69323 43.4231L4.49552 45.869L6.62451 50.3931ZM8.70098 47.1063C11.038 50.4884 14.0705 53.268 17.5426 55.2682L20.0385 50.9357C17.2104 49.3065 14.7301 47.0362 12.8145 44.2639L8.70098 47.1063ZM16.4395 52.2518L14.4707 57.6961L19.1727 59.3965L21.1415 53.9522L16.4395 52.2518ZM14.4495 57.7571C13.6904 60.0388 14.6774 62.9382 17.3686 63.8369L18.9524 59.0944C19.0111 59.114 19.0683 59.1487 19.1134 59.1913C19.1559 59.2314 19.1766 59.2676 19.1857 59.2881C19.2001 59.3205 19.195 59.3321 19.1939 59.3355L14.4495 57.7571ZM17.3245 63.8217L21.1046 65.1631L22.7767 60.451L18.9965 59.1096L17.3245 63.8217ZM21.1487 65.1783C23.4363 65.9423 26.3316 64.9452 27.2267 62.2549L22.4824 60.6765C22.5014 60.6194 22.5353 60.5628 22.5777 60.5177C22.6177 60.4752 22.6543 60.4539 22.6759 60.4443C22.7108 60.4288 22.726 60.4336 22.7326 60.4358L21.1487 65.1783ZM27.2015 62.3269L29.1703 56.9615L24.4764 55.2391L22.5075 60.6045L27.2015 62.3269ZM26.385 58.5616C30.2588 59.2515 34.4055 59.1691 38.4022 58.1245L37.1378 53.287C33.8893 54.1361 30.4757 54.2115 27.2617 53.639L26.385 58.5616ZM35.5004 56.7539L37.9417 62.0404L42.481 59.9441L40.0397 54.6576L35.5004 56.7539ZM37.9744 62.1086C39.0491 64.2619 41.8055 65.5937 44.3237 64.3321L42.0842 59.8617C42.1442 59.8317 42.2119 59.8156 42.2742 59.8138C42.3329 59.812 42.3732 59.8229 42.3942 59.831C42.4267 59.8434 42.4393 59.858 42.4483 59.8759L37.9744 62.1086ZM44.2655 64.3604L47.9669 62.6245L45.8439 58.0976L42.1425 59.8335L44.2655 64.3604ZM48.0251 62.5963C50.1787 61.5174 51.4992 58.7598 50.2448 56.2464L45.771 58.4791C45.7417 58.4203 45.7262 58.3542 45.7244 58.2939C45.7227 58.2371 45.7332 58.1985 45.7407 58.1787C45.7521 58.1488 45.7657 58.1358 45.7856 58.1258L48.0251 62.5963ZM50.2715 56.3016L47.8302 51.094L43.303 53.2163L45.7443 58.4239L50.2715 56.3016ZM46.9914 54.2094C50.3677 51.8675 53.1417 48.8292 55.1377 45.3514L50.8011 42.8626C49.1744 45.6971 46.9082 48.1821 44.1417 50.1009L46.9914 54.2094ZM52.1163 46.457L57.5503 48.4296L59.2564 43.7297L53.8224 41.7571L52.1163 46.457ZM57.6114 48.4509C59.8989 49.2148 62.7943 48.2178 63.6894 45.5275L58.945 43.9491C58.964 43.8919 58.998 43.8354 59.0404 43.7903C59.0804 43.7478 59.117 43.7265 59.1386 43.7169C59.1735 43.7014 59.1887 43.7062 59.1953 43.7084L57.6114 48.4509ZM63.6743 45.5715L65.0131 41.7841L60.2989 40.1177L58.9601 43.9051L63.6743 45.5715ZM65.0282 41.7401C65.7873 39.4585 64.8003 36.559 62.1091 35.6603L60.5253 40.4028C60.4666 40.3832 60.4094 40.3485 60.3643 40.3059C60.3218 40.2658 60.3011 40.2296 60.292 40.2091C60.2776 40.1767 60.2827 40.1651 60.2838 40.1617L65.0282 41.7401ZM62.1813 35.6856L56.8261 33.713L55.0979 38.4049L60.4531 40.3774L62.1813 35.6856ZM58.4235 36.4957C59.1119 32.6164 59.0297 28.4639 57.9875 24.4615L53.1489 25.7214C53.9968 28.978 54.0721 32.4002 53.5004 35.6222L58.4235 36.4957ZM56.6196 27.3596L61.8961 24.9136L59.7932 20.3773L54.5168 22.8233L56.6196 27.3596ZM61.9644 24.8807C64.118 23.8018 65.4384 21.0442 64.1841 18.5308L59.7103 20.7635C59.6809 20.7046 59.6655 20.6386 59.6637 20.5783C59.662 20.5215 59.6725 20.4829 59.68 20.4631C59.6914 20.4332 59.705 20.4202 59.7249 20.4102L61.9644 24.8807ZM64.2122 18.5889L62.4797 14.8805L57.9497 16.9969L59.6822 20.7053L64.2122 18.5889ZM62.4516 14.8224C61.377 12.6691 58.6206 11.3373 56.1023 12.5988L58.3418 17.0693C58.2818 17.0993 58.2141 17.1153 58.1518 17.1172C58.0931 17.1189 58.0528 17.108 58.0318 17.1C57.9993 17.0875 57.9867 17.073 57.9777 17.055L62.4516 14.8224ZM56.1575 12.572L50.9598 15.018L53.0888 19.5421L58.2865 17.0961L56.1575 12.572ZM54.0811 15.8588C51.7441 12.4767 48.7116 9.69717 45.2395 7.69691L42.7436 12.0294C45.5717 13.6587 48.0519 15.9289 49.9676 18.7012L54.0811 15.8588ZM46.3425 10.7133L48.3113 5.26904L43.6093 3.56866L41.6405 9.01296L46.3425 10.7133ZM48.3325 5.20807C49.0916 2.92638 48.1046 0.0269453 45.4135 -0.871813L43.8296 3.8707C43.771 3.85111 43.7138 3.81641 43.6687 3.77385C43.6262 3.73377 43.6054 3.69748 43.5963 3.67699C43.582 3.6446 43.587 3.63304 43.5882 3.62963L48.3325 5.20807ZM45.4576 -0.856625L41.6774 -2.19797L40.0054 2.51416L43.7855 3.85551L45.4576 -0.856625ZM41.7714 -2.16249C39.2534 -3.1716 36.4035 -1.83897 35.5554 0.710226L40.2997 2.28866C40.2662 2.38939 40.1965 2.44961 40.1411 2.47531C40.0831 2.50221 39.9959 2.51256 39.9114 2.47868L41.7714 -2.16249ZM36.0738 41.4513C30.6311 44.0174 24.1033 41.6356 21.6148 36.2016L17.0688 38.2834C20.723 46.2629 30.2609 49.7198 38.2061 45.9738L36.0738 41.4513ZM21.6046 36.1797C19.0466 30.7335 21.4071 24.2453 26.8657 21.6717L24.7334 17.1491C16.804 20.8877 13.3368 30.338 17.079 38.3053L21.6046 36.1797ZM26.8657 21.6717C32.3085 19.1055 38.8362 21.4873 41.3248 26.9214L45.8707 24.8395C42.2165 16.8601 32.6787 13.4031 24.7334 17.1491L26.8657 21.6717ZM41.3295 26.9316C43.8298 32.3271 41.5104 38.888 36.0738 41.4513L38.2061 45.9738C46.1576 42.2248 49.5085 32.6895 45.866 24.8293L41.3295 26.9316Z" transform="translate(10 46.8667)" fill="#6a60af" mask="url(#path-3-inside-1)"/>
<path d="M0 55.4667L23.1252 31.97L13.3635 28.3311L55.3333 0L30.9032 25.472L42.9616 29.9946L0 55.4667Z" transform="translate(120.667 53.2666)" stroke="#6a60af" stroke-width="2.5"/>
<path d="M15.0774 0.160825C6.00079 -1.45381 0 9.50989 0 14.2192C0.657725 17.7513 12.3591 25.1263 23.4634 25.2188C36.3014 25.3257 45.849 17.7513 47 14.2192C47 2.91673 36.7823 -0.511974 32.836 0.160825L23.4634 9.11903L15.0774 0.160825Z" transform="translate(70 150.281)" stroke="#6a60af" stroke-width="2.68692"/>
<path d="M65.5385 33.6C65.5385 51.3317 51.1996 65.7 33.5192 65.7C15.8389 65.7 1.5 51.3317 1.5 33.6C1.5 15.8683 15.8389 1.5 33.5192 1.5C51.1996 1.5 65.5385 15.8683 65.5385 33.6Z" transform="translate(60.0128 109.8)" stroke="#6a60af" stroke-width="3"/>
<path d="M26.281 14.128C26.281 21.2175 20.6701 26.9126 13.8122 26.9126C6.95439 26.9126 1.34346 21.2175 1.34346 14.128C1.34346 7.03851 6.95439 1.34346 13.8122 1.34346C20.6701 1.34346 26.281 7.03851 26.281 14.128Z" transform="translate(80.2308 118.333)" stroke="#6a60af" stroke-width="2.68692"/>
<line x1="1.27355" y1="-1.27355" x2="12.4404" y2="-1.27355" transform="translate(80.722 159.475) rotate(90)" stroke="#6a60af" stroke-width="2.54711" stroke-linecap="round" stroke-linejoin="round"/>
<line x1="1.27355" y1="-1.27355" x2="12.4404" y2="-1.27355" transform="translate(102.2 159.475) rotate(90)" stroke="#6a60af" stroke-width="2.54711" stroke-linecap="round" stroke-linejoin="round"/>
</svg>
