<svg width="191" height="191" viewBox="0 0 191 191" fill="none" xmlns="http://www.w3.org/2000/svg">
<path d="M67.6025 21.8434C74.7657 28.2627 84.6151 33.1366 88.6444 34.7711L36.2636 90.4941C13.3414 88.7109 2.53696 67.4619 0 57.0603L54.1716 0C55.6639 4.60643 60.4393 15.4241 67.6025 21.8434Z" transform="translate(37 78.5054)" stroke="#6a60af" stroke-width="3" stroke-linecap="round"/>
<path d="M0 2.47033C3.13389 -1.54152 5.90962 -1.36341 18.8033 8.26552" transform="translate(91.1716 76.0352)" stroke="#6a60af" stroke-width="3" stroke-linecap="round"/>
<path d="M0 2.35726C3.08111 -1.38834 5.88435 -1.49294 18.7229 8.17733" transform="matrix(-0.0182278 -0.999834 -0.999837 0.0180723 127.894 113.262)" stroke="#6a60af" stroke-width="3" stroke-linecap="round"/>
<path d="M17.0126 73.5543C26.7127 66.7189 41.9046 47.9663 25.0711 27.6386M20.1464 31.2048L13.431 40.5663M18.8033 22.735L0 18.7229M25.5188 18.2771L21.0418 0M32.682 19.6145L46.113 9.36145M35.3682 28.5301L51.0377 37.4458" transform="translate(92.9622 21)" stroke="#6a60af" stroke-width="3" stroke-linecap="round" stroke-linejoin="round"/>
<path d="M40.4803 0C40.4803 8.32129 44.0619 27.5494 58.3883 37.8916M21.2293 6.24097C17.3492 15.751 15.3197 39.7639 38.2418 59.735M18.9908 79.7953C10.1861 73.4057 -5.54308 53.8507 1.97826 26.747" transform="translate(54.7205 88.3135)" stroke="#6a60af" stroke-width="3"/>
</svg>
