<svg width="191" height="191" viewBox="0 0 191 191" fill="none" xmlns="http://www.w3.org/2000/svg">
<path d="M0.0383621 24.8816C0.0383621 25.0343 0.0383621 25.1869 0.0383621 25.3396C0.0383621 25.4922 0.0383621 25.4922 0.0383621 25.6449C0.0383621 25.7975 0.19181 25.9502 0.652155 27.324C1.57284 29.3084 3.41422 30.5296 5.40905 30.5296H13.6953C13.8487 30.5296 13.8487 30.5296 13.8487 30.5296C13.8487 33.2773 13.2349 36.7882 13.2349 37.3988C12.7746 38.9252 12.6211 40.4517 12.6211 41.8255C12.6211 43.0467 12.928 44.1153 13.2349 45.1838C13.5418 45.947 14.0022 46.7103 14.6159 47.3209C15.3832 48.0841 16.1504 48.5421 17.0711 48.8474C17.378 48.8474 17.6849 49 17.9918 49C18.2987 49 18.4522 49 18.759 49C19.3728 48.8474 19.9866 48.5421 20.447 48.2368C20.9073 47.9315 21.2142 47.3209 21.3677 46.7103C21.5211 46.405 21.5211 45.947 21.5211 45.4891C21.5211 45.0312 21.5211 44.5732 21.3677 44.1153C21.3677 43.81 21.2142 43.5047 21.2142 43.352C21.3677 41.9782 22.9022 37.5514 23.209 36.7882C23.5159 36.1776 23.8228 35.4143 24.1297 34.8037C25.6642 31.5981 27.659 29.0031 29.8073 27.1713C30.728 26.4081 32.4159 25.3396 33.6435 25.1869C33.9504 26.7134 35.178 27.7819 36.7125 27.7819H45.7659C47.4539 27.7819 48.9884 26.4081 48.9884 24.5763V3.20561C49.1418 1.37383 47.7608 0 45.9194 0H36.8659C35.178 0 33.797 1.37383 33.797 3.20561V21.8287C31.8022 21.9813 29.347 23.5078 27.9659 24.729C25.5108 26.866 23.5159 29.7664 21.6746 33.2773C21.3677 34.0405 20.9073 34.6511 20.6004 35.4143C20.2935 36.1776 18.6056 40.9097 18.4522 42.8941C18.4522 43.5047 18.4522 44.1153 18.6056 44.5732C18.6056 44.8785 18.759 45.1838 18.759 45.3365C18.759 45.4891 18.759 45.6417 18.759 45.7944C18.759 45.947 18.6056 45.947 18.4522 45.947C18.2987 45.947 18.1453 45.947 17.9918 45.947C17.6849 45.947 17.378 45.6417 17.0711 45.3365C16.7642 45.0312 16.4573 44.5732 16.3039 44.1153C15.997 43.5047 15.8435 42.7414 15.8435 41.8255C15.8435 40.757 15.997 39.5358 16.3039 38.3146V38.162C16.3039 38.0093 16.9177 34.0405 16.9177 30.6822C16.9177 28.8505 15.5366 27.7819 14.0022 27.6293H13.8487H5.40905C4.64181 27.6293 3.87457 27.1713 3.56767 26.4081C3.41422 25.9502 3.26078 25.4922 3.10733 25.1869C3.10733 25.0343 3.10733 24.8816 3.10733 24.8816C3.10733 24.1184 3.10733 23.6604 3.41422 23.3551C3.41422 23.2025 3.56767 23.2025 3.56767 23.0498C3.72112 22.7446 4.02802 22.4393 4.33491 21.9813C4.64181 21.2181 4.64181 20.4548 4.02802 19.6916C3.72112 19.3863 3.72112 19.081 3.56767 18.9283C3.41422 18.6231 3.72112 18.0125 5.10215 16.9439C5.40905 16.6386 6.02284 16.1807 6.17629 15.4174C6.48319 14.3489 6.02284 13.5857 5.8694 13.1277C5.8694 12.9751 5.71595 12.9751 5.71595 12.8224C5.5625 12.3645 5.8694 11.7539 6.02284 11.6012H6.17629C6.48319 11.4486 6.79009 11.2959 7.25043 10.9907C7.86422 10.3801 8.17112 9.31153 7.86422 8.39564C7.71077 8.09034 7.71077 7.9377 7.55733 7.6324C7.55733 7.47975 7.40388 7.3271 7.40388 7.3271C7.40388 7.17446 7.40388 7.02181 7.55733 6.86916C7.86422 6.41122 8.78491 6.10592 9.55215 6.10592H24.5901C25.5108 6.10592 26.1246 5.49533 26.1246 4.57944C26.1246 3.66355 25.5108 3.05296 24.5901 3.05296H9.55215C7.71077 3.05296 6.02284 3.8162 5.10215 5.03738C4.48836 5.80062 4.18147 6.71651 4.33491 7.78505C4.33491 8.24299 4.48836 8.70094 4.64181 9.00623C2.80043 9.92212 2.18664 12.0592 2.64698 13.5857C2.80043 13.891 2.95388 14.1963 3.10733 14.5016C2.18664 15.1122 -0.115086 17.0966 0.652155 19.6916C0.805603 20.1495 0.959052 20.6075 1.26595 21.0654C1.1125 21.2181 1.1125 21.2181 0.959052 21.3707C0.19181 22.2866 -0.115086 23.5078 0.0383621 24.8816ZM36.8659 3.05296H46.0728V24.4237H36.8659V3.05296Z" transform="translate(61 64)" fill="#6a60af"/>
<path d="M3.93981 10.0628L0 1.27966L2.86001 0L5.51574 5.93296L11.4692 3.28639L12.7533 6.13655L3.93981 10.0628Z" transform="translate(132.924 98.3989)" fill="#6a60af"/>
<path d="M8.75514 10.0919L7.12085 3.80989L0.817146 5.46763L0 2.44299L9.33881 0L11.7903 9.30661L8.75514 10.0919Z" transform="translate(32.3269 50.2378)" fill="#6a60af"/>
<path d="M7.41268 16.5483L0 9.16119L9.19289 0L16.6056 7.38712L7.41268 16.5483ZM4.43593 9.13211L7.41268 12.0986L12.1696 7.35804L9.16371 4.42064L4.43593 9.13211Z" transform="translate(108.847 106.95)" fill="#6a60af"/>
<path d="M9.45555 62.9359C7.3835 59.824 5.63247 56.4795 4.20247 52.9895C2.80164 49.5868 1.75103 46.0095 1.05062 42.4032C0.350205 38.7969 0 35.1325 0 31.468C0 27.8035 0.350205 24.139 1.05062 20.5327C1.75103 16.8973 2.80164 13.3492 4.20247 9.94644C5.63247 6.45646 7.3835 3.1119 9.45555 0L12.0821 1.71591C10.1268 4.65331 8.4633 7.82337 7.12085 11.1098C5.80757 14.338 4.81533 17.7116 4.1441 21.1144C3.47287 24.5171 3.15185 27.978 3.15185 31.4389C3.15185 34.8998 3.47287 38.3898 4.1441 41.7634C4.81533 45.1952 5.80757 48.5689 7.12085 51.768C8.4633 55.0544 10.1268 58.2245 12.0821 61.1619L9.45555 62.9359Z" transform="translate(29 52.71)" fill="#6a60af"/>
<path d="M7.87962 52.9313L4.96124 51.768C6.27452 48.5398 7.26677 45.1661 7.938 41.7634C8.60922 38.3607 8.93024 34.8998 8.93024 31.4389C8.93024 27.978 8.60922 24.5171 7.938 21.1144C7.26677 17.7116 6.27452 14.338 4.96124 11.1098C3.61879 7.82337 1.95531 4.68239 0 1.71591L2.62654 0C4.69859 3.14098 6.4788 6.48555 7.87962 9.94644C9.28045 13.3783 10.3311 16.9264 11.0315 20.5327C11.7319 24.139 12.0821 27.8035 12.0821 31.468C12.0821 35.1034 11.7319 38.7969 11.0315 42.3742C10.3311 45.9514 9.25126 49.4995 7.87962 52.9313Z" transform="translate(131.698 52.7681)" fill="#6a60af"/>
<path d="M42.0247 83.7304C30.8181 83.7304 20.2536 79.3679 12.3156 71.4573C4.37757 63.5758 0 53.0477 0 41.8797C0 30.7118 4.37757 20.1837 12.3156 12.2731C20.2536 4.36247 30.7889 0 42.0247 0C53.2312 0 63.7958 4.36247 71.7338 12.2731C79.6718 20.1837 84.0493 30.6827 84.0493 41.8797C84.0493 53.0477 79.6718 63.5758 71.7338 71.4864C63.7958 79.3679 53.2312 83.7304 42.0247 83.7304ZM42.0247 3.14098C31.6352 3.14098 21.8878 7.18354 14.5335 14.4834C7.17921 21.8124 3.15185 31.5261 3.15185 41.8797C3.15185 52.2333 7.2084 61.9471 14.5335 69.2761C21.8878 76.605 31.6352 80.6185 42.0247 80.6185C52.4141 80.6185 62.1615 76.5759 69.5158 69.2761C76.8701 61.9471 80.8975 52.2333 80.8975 41.8797C80.8975 31.5261 76.8409 21.8124 69.5158 14.4834C62.1615 7.18354 52.3849 3.14098 42.0247 3.14098Z" transform="translate(44 42)" fill="#6a60af"/>
<rect x="1.59327" y="1.59327" width="17.2095" height="47.3399" rx="3.71762" transform="translate(111.749 124.359) scale(1.00173 0.998271) rotate(-45.0393)" stroke="#6a60af" stroke-width="3.18653" stroke-linecap="round" stroke-linejoin="round"/>
</svg>
