<?xml version="1.0" encoding="utf-8"?>
<!-- Generator: Adobe Illustrator 21.1.0, SVG Export Plug-In . SVG Version: 6.00 Build 0)  -->
<svg version="1.1" id="Layer_1" xmlns="http://www.w3.org/2000/svg" xmlns:xlink="http://www.w3.org/1999/xlink" x="0px" y="0px"
	 viewBox="0 0 795 759" style="enable-background:new 0 0 795 759;" xml:space="preserve">
<style type="text/css">
	.st0{fill:none;stroke:#159ABB;stroke-width:28;stroke-miterlimit:10;}
	.st1{fill:#FFFFFF;stroke:#159ABB;stroke-width:28;stroke-miterlimit:10;}
	.st2{fill:none;stroke:#A9DAE6;stroke-width:28;stroke-miterlimit:10;}
</style>
<title>Artboard 1</title>
<path class="st0" d="M248.6,146.9c-32.5,9.9-52.4,39.7-52.1,72.1c-41,14-62.1,62.4-47.6,109.7c1.2,3.6,2.6,7.1,4.2,10.5
	c-25.9,23-35.9,67.7-22.1,112.6c8.7,28.5,25.4,51.6,45.2,65.9c0.8,11.7,3.6,23.1,8.3,33.8c20.1,46,69.2,69,109.8,51.5
	c20.3,26.7,55.4,39.7,91.3,28.7c45.3-13.8,69.5-58.9,56.5-101.3l-101.8-333C328.2,157.7,288.2,134.8,248.6,146.9z"/>
<path class="st0" d="M294.4,289.8c-39.6,12.1-81.6-10.3-93.7-49.9c-2.1-6.9-3.2-14.1-3.3-21.3"/>
<path class="st0" d="M232.4,416.9c26.5,6.5,49-13.2,60.9-41c15.1-35.2,50.7-58.1,82.9-37.3c5.8,3.7,5.6,4.5,10.2,9.6"/>
<path class="st0" d="M352.6,226.8c-29.5,16.4-63.7,6.7-83.2-19"/>
<path class="st0" d="M431.4,484.6c-33.6,2.9-56.5,30-58.4,62.3"/>
<path class="st0" d="M236.9,284.9c-18.9,11.4-34.9,32.6-28.5,53.5"/>
<path class="st0" d="M278.2,530c-22.1,1.1-47.1-7.5-53.5-28.5"/>
<path class="st0" d="M303.7,613.3c-9.9-9-18.4-20.3-22.5-33.8c-13-42.4,11.9-87.7,57.6-101.6l-3.1-10.2
	c-5.5-17.9,13.1-48.8,29.3-53.8"/>
<path class="st0" d="M180,391.9c19.9-5.7,40.7,5.8,46.4,25.7c5.6,19.4-5.2,39.7-24.5,46"/>
<path class="st1" d="M389.7,103.8c32.5-9.9,63.5,4.3,81.4,31.3c41.8-11.4,94.1,19.4,108.5,66.7c1.1,3.6,1.9,7.3,2.6,11
	c34.4,4.6,63.2,32.6,77,77.6c8.7,28.5,7.8,57-0.6,79.9c5.8,10.1,9.9,21.1,12,32.6c9.1,49.4-18.8,95.9-62.2,104
	c-1.9,33.5-25.3,64.3-61.2,75.3c-45.3,13.8-92.1-9.5-105-51.9l-101.8-333c-12.2-39.4,9.8-81.2,49.1-93.4
	C389.6,103.8,389.7,103.8,389.7,103.8z"/>
<path class="st0" d="M606.4,520.8c6.6-27.1-2.1-55.7-22.8-74.5"/>
<path class="st0" d="M416.6,230c22.1-1.1,47.1,7.5,53.5,28.5"/>
<path class="st0" d="M373.4,271.9c39.6-12.1,62.5-52,51.2-89.1"/>
<path class="st0" d="M561.2,409.8c-41.8,12.8-53.2,45.7-39.5,90.5"/>
<path class="st0" d="M518.2,452c-25.1-14.7-63.7-14.8-100.1,2.5"/>
<path class="st0" d="M509.3,196.5c6.1,19.8,25.1,31.5,45,25.5l28.2-8.6"/>
<path class="st0" d="M583.1,279.9c-19.7,6.4-30.5,27.6-24.1,47.3c6.2,19.2,26.6,30,46,24.5"/>
<path class="st0" d="M421.2,318.2c19.9-5.7,40.7,5.8,46.4,25.7c5.6,19.4-5.2,39.7-24.5,46"/>
<path class="st0" d="M471.6,336.4c15.8-19.5,60.2-35.2,85.1-14.8"/>
<path class="st0" d="M658.4,370.1c-7.7,16.4-20.5,29.7-37.5,37.1"/>
<line class="st0" x1="471.1" y1="135.1" x2="481.6" y2="169.3"/>
<path class="st2" d="M754.3,460.8C792,301.9,713.3,128.9,559.9,58"/>
<path class="st2" d="M729.5,530.8c6.5-13.4,12-27.1,16.7-41.2"/>
<path class="st2" d="M44.5,290.4C6.8,449.3,85.6,622.3,239,693.2"/>
<path class="st2" d="M69.4,220.4c-6.5,13.3-12,27.1-16.7,41.2"/>
</svg>
