<?xml version="1.0" encoding="utf-8"?>
<!-- Generator: Adobe Illustrator 21.1.0, SVG Export Plug-In . SVG Version: 6.00 Build 0)  -->
<svg version="1.1" id="Layer_1" xmlns="http://www.w3.org/2000/svg" xmlns:xlink="http://www.w3.org/1999/xlink" x="0px" y="0px"
	 viewBox="0 0 795 759" style="enable-background:new 0 0 795 759;" xml:space="preserve">
<style type="text/css">
	.st0{fill:#E5B6BC;stroke:#242424;stroke-width:20;stroke-miterlimit:10;}
	.st1{fill:#FFFFFF;}
	.st2{fill:none;stroke:#BB3B4B;stroke-width:20;stroke-miterlimit:10;}
	.st3{fill:#D5D4D4;}
	.st4{fill:#E5B6BC;}
</style>
<title>Artboard 1</title>
<rect x="35.8" y="127.2" transform="matrix(0.9563 -0.2924 0.2924 0.9563 -38.3686 108.1616)" class="st0" width="613.7" height="110.5"/>
<rect x="109.4" y="226.7" transform="matrix(0.9563 -0.2924 0.2924 0.9563 -105.511 140.1892)" class="st1" width="613.7" height="392.8"/>
<rect x="93.2" y="118.6" transform="matrix(0.9563 -0.2924 0.2924 0.9563 -90.7701 133.1577)" class="st2" width="613.7" height="503.2"/>
<line class="st2" x1="523.5" y1="18.1" x2="548.6" y2="100.2"/>
<line class="st2" x1="453" y1="39.6" x2="478.2" y2="121.8"/>
<line class="st2" x1="382.6" y1="61.1" x2="407.7" y2="143.3"/>
<line class="st2" x1="312.2" y1="82.7" x2="337.3" y2="164.8"/>
<line class="st2" x1="241.8" y1="104.2" x2="266.9" y2="186.4"/>
<line class="st2" x1="171.3" y1="125.7" x2="196.4" y2="207.9"/>
<line class="st2" x1="100.9" y1="147.3" x2="126" y2="229.4"/>
<rect x="353.2" y="634.4" transform="matrix(0.9563 -0.2924 0.2924 0.9563 -178.6708 146.9455)" class="st2" width="98.2" height="73.7"/>
<rect x="494" y="591.3" transform="matrix(0.9563 -0.2924 0.2924 0.9563 -159.9233 186.2448)" class="st2" width="98.2" height="73.7"/>
<rect x="634.9" y="548.3" transform="matrix(0.9563 -0.2924 0.2924 0.9563 -141.1823 225.5461)" class="st2" width="98.2" height="73.7"/>
<line class="st2" x1="652.3" y1="145.5" x2="65.4" y2="325"/>
<rect x="152.7" y="455.7" transform="matrix(0.9563 -0.2924 0.2924 0.9563 -133.0406 79.4483)" class="st3" width="93.1" height="58.3"/>
<rect x="260.5" y="425" transform="matrix(0.9573 -0.2892 0.2892 0.9573 -118.2336 108.2401)" class="st4" width="93.3" height="58.5"/>
<rect x="368.4" y="389.7" transform="matrix(0.9563 -0.2924 0.2924 0.9563 -104.337 139.6276)" class="st3" width="93.1" height="58.3"/>
<rect x="476.3" y="356.8" transform="matrix(0.9563 -0.2924 0.2924 0.9563 -89.9828 169.7175)" class="st3" width="93.1" height="58.3"/>
<rect x="584.1" y="323.8" transform="matrix(0.9563 -0.2924 0.2924 0.9563 -75.6303 199.8085)" class="st3" width="93.1" height="58.3"/>
<rect x="181.7" y="550.3" transform="matrix(0.9563 -0.2924 0.2924 0.9563 -159.4327 92.0374)" class="st3" width="93.1" height="58.3"/>
<rect x="289.3" y="520" transform="matrix(0.9573 -0.2892 0.2892 0.9573 -144.4788 120.6262)" class="st3" width="93.3" height="58.5"/>
<rect x="397.3" y="484.3" transform="matrix(0.9563 -0.2924 0.2924 0.9563 -130.7291 152.2167)" class="st3" width="93.1" height="58.3"/>
<rect x="339.6" y="295.5" transform="matrix(0.9563 -0.2924 0.2924 0.9563 -78.0527 127.0931)" class="st3" width="93.1" height="58.3"/>
<rect x="447.5" y="262.6" transform="matrix(0.9563 -0.2924 0.2924 0.9563 -63.7015 157.1814)" class="st3" width="93.1" height="58.3"/>
<rect x="555.3" y="229.6" transform="matrix(0.9563 -0.2924 0.2924 0.9563 -49.3464 187.2711)" class="st3" width="93.1" height="58.3"/>
</svg>
