<?xml version="1.0" encoding="utf-8"?>
<!-- Generator: Adobe Illustrator 22.1.0, SVG Export Plug-In . SVG Version: 6.00 Build 0)  -->
<svg version="1.1" id="Layer_1" xmlns="http://www.w3.org/2000/svg" xmlns:xlink="http://www.w3.org/1999/xlink" x="0px" y="0px"
	 viewBox="0 0 795 759" style="enable-background:new 0 0 795 759;" xml:space="preserve">
<style type="text/css">
	.st0{display:none;opacity:0.7;}
	.st1{display:inline;fill:#C8C5E1;}
	.st2{display:none;}
	.st3{display:inline;}
	.st4{opacity:0.4;fill:#C8C5E1;enable-background:new    ;}
	.st5{fill:#C8C5E1;}
	.st6{fill:none;stroke:#2F2D54;stroke-width:18;stroke-miterlimit:10;}
	.st7{fill:#272340;}
	.st8{fill:none;stroke:#272340;stroke-width:22.0776;}
	.st9{fill:none;stroke:#C8C5E1;stroke-width:22.0776;}
	.st10{fill:#C8C5E1;stroke:#C8C5E1;stroke-width:22.0776;stroke-miterlimit:10;}
</style>
<g class="st0">
	<polygon class="st1" points="138,163.1 81.4,499.1 394.3,380.4 	"/>
	<polygon class="st1" points="713.6,259.9 657,595.9 394.3,380.4 	"/>
</g>
<g class="st2">
	<g class="st3">
		<polygon class="st4" points="394.4,380.3 81.6,498.9 341.6,712.4 657.1,595.7 		"/>
		<polygon class="st5" points="138,162.9 394.4,380.3 713.6,259.7 452.9,50.6 		"/>
	</g>
	<g class="st3">
		<path class="st6" d="M453.6,46.6l258.9,216.2l-55.5,331L342,710.3l-259.6-213l55.4-329.5L453.6,46.6z"/>
	</g>
</g>
<g>
	<path class="st5" d="M408.1,173.2l179,103.8v207.7l-179,103.8l-179-103.8V277L408.1,173.2 M407.4,147.2L205.2,263.4V497
		l202.2,114.8L608.2,497V262L407.4,147.2z"/>
	<path class="st7" d="M407.4,147.2L608.2,262v235L407.4,611.8L205.2,497V267.5v-4.1l2.7-1.4L407.4,147.2 M407.4,121.3L184.7,249.7
		v259.6L406,637.7l222.7-128.4V251.1L407.4,121.3L407.4,121.3z"/>
	<path class="st8" d="M544.4,394.5v64.2l-138,82L349,507.9"/>
	<path class="st8" d="M265.7,416.4V300.3l102.5-58.7"/>
	<path class="st9" d="M101.7,432.8v117.5v5.5l4.1,2.7l296.5,170.8l4.1,2.7l4.1-2.7l296.5-170.8l4.1-2.7v-5.5V208.7v-5.5l-4.1-2.7
		L411.8,29.8l-4.1-2.7l-4.1,2.7L294.4,92.6"/>
	<ellipse class="st10" cx="101.7" cy="431.4" rx="17.8" ry="17.8"/>
	<ellipse class="st10" cx="294.4" cy="88.5" rx="17.8" ry="17.8"/>
</g>
</svg>
