<svg id="Layer_1" data-name="Layer 1" xmlns="http://www.w3.org/2000/svg" viewBox="0 0 795 759"><defs><style>.cls-1,.cls-2{fill:none;stroke-miterlimit:10;stroke-width:28px;}.cls-1{stroke:#c8c5e1;}.cls-2{stroke:#6a60af;}</style></defs><title>Artboard 1</title><line class="cls-1" x1="291.65" y1="54.28" x2="335.71" y2="198.43"/><line class="cls-1" x1="140.86" y1="137.79" x2="254.96" y2="244.49"/><line class="cls-1" x1="58.12" y1="295.32" x2="210.39" y2="330.24"/><line class="cls-1" x1="70.3" y1="470.58" x2="214.44" y2="426.51"/><line class="cls-1" x1="160.28" y1="620.72" x2="266.98" y2="506.62"/><line class="cls-1" x1="724.73" y1="444.14" x2="572.47" y2="409.22"/><line class="cls-1" x1="717.72" y1="272.65" x2="573.57" y2="316.71"/><line class="cls-1" x1="623.8" y1="118.37" x2="517.09" y2="232.47"/><line class="cls-1" x1="466.26" y1="35.63" x2="431.34" y2="187.89"/><line class="cls-2" x1="276.57" y1="188.46" x2="292.11" y2="213.09"/><line class="cls-2" x1="201.76" y1="271.44" x2="227.28" y2="285.01"/><line class="cls-2" x1="178.46" y1="378.74" x2="206.36" y2="378.23"/><line class="cls-2" x1="210.95" y1="485.01" x2="235.59" y2="469.47"/><line class="cls-2" x1="293.93" y1="559.82" x2="307.5" y2="534.3"/><line class="cls-2" x1="582.32" y1="467.65" x2="556.8" y2="454.08"/><line class="cls-2" x1="605.61" y1="360.35" x2="576.5" y2="361.23"/><line class="cls-2" x1="571.9" y1="254.45" x2="548.49" y2="269.62"/><line class="cls-2" x1="490.14" y1="179.26" x2="476.57" y2="204.78"/><line class="cls-2" x1="382.84" y1="155.97" x2="383.35" y2="183.86"/><path class="cls-2" d="M530.72,543.53l-5.6-18.32c-7.47-24.43-4.79-50.63,6.71-74.18a153.31,153.31,0,0,0,12.71-120.09c-23.9-78.18-108-125.94-187.26-105.71-86.63,22.48-136.56,112.55-110.8,196.83,12.7,41.53,41,73,76.09,91.61,23.93,12.72,40.79,32.94,48.64,58.6l5.6,18.32"/><path class="cls-1" d="M282.36,360.33a108.83,108.83,0,0,1,55-82.26"/><path class="cls-1" d="M286.51,404.48c-2.24-7.33-2.89-13.81-3.91-21.51"/><polyline class="cls-2" points="544.31 662.26 523.54 668.61 510.35 695.35 478.59 705.06 452.69 690.27 431.93 696.62"/><line class="cls-2" x1="375.15" y1="624.49" x2="551.05" y2="570.71"/><line class="cls-2" x1="387.84" y1="666.02" x2="563.75" y2="612.24"/></svg>