<?xml version="1.0" encoding="utf-8"?>
<!-- Generator: Adobe Illustrator 21.1.0, SVG Export Plug-In . SVG Version: 6.00 Build 0)  -->
<svg version="1.1" xmlns="http://www.w3.org/2000/svg" xmlns:xlink="http://www.w3.org/1999/xlink" x="0px" y="0px"
	 viewBox="0 0 795 759" style="enable-background:new 0 0 795 759;" xml:space="preserve">
<style type="text/css">
	.st0{fill:none;stroke:#F8E4A3;stroke-width:28.1859;stroke-linejoin:round;}
	.st1{fill:none;stroke:#F2BB05;stroke-width:28.1859;stroke-miterlimit:10;}
	.st2{fill:#F8E4A3;stroke:#F2BB05;stroke-width:28.1859;stroke-miterlimit:10;}
	.st3{fill:#F8E4A3;stroke:#F2BB05;stroke-width:26.5279;stroke-linejoin:round;}
	.st4{fill:#FFFFFF;}
	.st5{fill:none;stroke:#F2BB05;stroke-width:22.5869;stroke-miterlimit:10;}
</style>
<g id="Layer_1">
	<title>Artboard 1</title>
</g>
<g id="Layer_2">
	<path class="st0" d="M530.4,663.1c-155.1,82.6-349.6,24.6-432.2-130.5c-13.5-24.8-23.7-51.2-30.5-79.3"/>
	<path class="st0" d="M480.6,78.2C648.5,133.1,739.6,314.7,683,481c-3.2,11.6-8.1,23.3-13,34.9"/>
	<polyline class="st1" points="455.2,396.8 691,628.5 651.5,670.3 414.1,436.9 	"/>
	
		<rect x="512.7" y="412.6" transform="matrix(0.7009 -0.7132 0.7132 0.7009 -214.792 553.4014)" class="st2" width="79.6" height="240.4"/>
	
		<ellipse transform="matrix(1 -8.682030e-03 8.682030e-03 1 -2.3108 2.4118)" class="st3" cx="276.6" cy="267.4" rx="217.2" ry="217.2"/>
	<g>
		
			<ellipse transform="matrix(1 -8.682030e-03 8.682030e-03 1 -2.3108 2.4118)" class="st4" cx="276.6" cy="267.4" rx="179.1" ry="179.1"/>
	</g>
	<path class="st5" d="M135.5,245.4c12.7-68.1,70.3-116.7,138.3-117.3"/>
	<path class="st5" d="M417.8,292.7c-7.9,44.8-37.4,83.2-77,101.8"/>
	<path class="st5" d="M141,308.3c-3.4-13.2-5.2-26.5-5.3-39.7"/>
</g>
</svg>
