<?xml version="1.0" encoding="utf-8"?>
<!-- Generator: Adobe Illustrator 21.1.0, SVG Export Plug-In . SVG Version: 6.00 Build 0)  -->
<svg version="1.1" id="Layer_1" xmlns="http://www.w3.org/2000/svg" xmlns:xlink="http://www.w3.org/1999/xlink" x="0px" y="0px"
	 viewBox="0 0 795 759" style="enable-background:new 0 0 795 759;" xml:space="preserve">
<style type="text/css">
	.st0{opacity:0.5;}
	.st1{fill:#E8E8E9;}
	.st2{fill:none;stroke:#BBBFC3;stroke-width:28;stroke-miterlimit:10;}
	.st3{fill:none;stroke:#1EB68F;stroke-width:28;stroke-miterlimit:10;}
	.st4{fill:none;stroke:#1EB68F;stroke-width:28;stroke-linecap:round;stroke-miterlimit:10;}
	.st5{fill:#AFDDD2;stroke:#1EB68F;stroke-width:28;stroke-miterlimit:10;}
</style>
<title>Artboard 1</title>
<g class="st0">
	
		<ellipse transform="matrix(0.9563 -0.2924 0.2924 0.9563 -82.6936 122.2688)" class="st1" cx="367.7" cy="337.8" rx="285.2" ry="285.2"/>
</g>
<path class="st2" d="M340.3,177.7c14.5-41.1,59.5-62.7,100.6-48.2c41.1,14.5,62.7,59.5,48.2,100.6l0,0"/>
<path class="st2" d="M205.1,332.9c-39.6,18.3-56.9,65.2-38.7,104.9s65.2,56.9,104.9,38.7"/>
<path class="st2" d="M419.6,500.5c31.8,29.6,81.7,27.8,111.5-4.2c29.8-31.8,28.1-81.6-3.6-111.4c0,0,0,0-0.1-0.1"/>
<ellipse transform="matrix(0.9563 -0.2924 0.2924 0.9563 -35.3768 51.1553)" class="st3" cx="153.5" cy="143.9" rx="94" ry="94"/>
<ellipse transform="matrix(0.9563 -0.2924 0.2924 0.9563 -166.5592 117.3485)" class="st3" cx="309.3" cy="615.9" rx="94" ry="94"/>
<ellipse transform="matrix(0.9563 -0.2924 0.2924 0.9563 -48.0615 203.5378)" class="st3" cx="656.9" cy="262.6" rx="94" ry="94"/>
<line class="st4" x1="203.6" y1="186" x2="370.5" y2="336.6"/>
<line class="st4" x1="322.7" y1="556.6" x2="370.5" y2="336.6"/>
<line class="st4" x1="596.9" y1="277" x2="370.5" y2="336.6"/>
<ellipse transform="matrix(0.9563 -0.2924 0.2924 0.9563 -82.8089 122.6373)" class="st5" cx="368.9" cy="338.4" rx="115.5" ry="115.5"/>
</svg>
